<svg width="321.3311767578125px" height="122px" xmlns="http://www.w3.org/2000/svg" viewBox="89.33441162109375 14 321.3311767578125 122" style="background: rgba(0, 0, 0, 0);" preserveAspectRatio="xMidYMid"><defs><filter id="editing-extrusion" x="-100%" y="-100%" width="300%" height="300%"><feFlood result="color1" flood-color="#444"></feFlood><feConvolveMatrix order="8,8" divisor="1" kernelMatrix="1 0 0 0 0 0 0 0 0 1 0 0 0 0 0 0 0 0 1 0 0 0 0 0 0 0 0 1 0 0 0 0 0 0 0 0 1 0 0 0 0 0 0 0 0 1 0 0 0 0 0 0 0 0 1 0 0 0 0 0 0 0 0 1" in="SourceAlpha" result="extrude"></feConvolveMatrix><feComposite in="color1" in2="extrude" result="comp-extrude" operator="in"></feComposite><feOffset dx="4" dy="4" in="comp-extrude" result="offset-extrude"></feOffset><feMerge><feMergeNode in="offset-extrude"></feMergeNode><feMergeNode in="SourceGraphic"></feMergeNode></feMerge></filter></defs><g filter="url(#editing-extrusion)"><g transform="translate(140.23997431993484, 99)"><path d="M7.68 0L0.64 0L8.32-42.24L22.08-42.24L32.06-13.18L37.38-42.24L44.48-42.18L36.67 0L22.02 0L12.80-27.97L7.68 0ZM61.44-3.52L61.44-3.52L61.44-3.52Q59.46 1.28 53.12 1.28L53.12 1.28L53.12 1.28Q49.86 1.28 47.81-0.96L47.81-0.96L47.81-0.96Q46.08-2.94 46.08-4.93L46.08-4.93L46.08-4.93Q46.08-10.11 48.45-20.22L48.45-20.22L50.82-32.64L63.81-33.92L59.90-13.70L59.90-13.70Q58.82-8.96 58.82-7.30L58.82-7.30L58.82-7.30Q58.82-3.65 61.44-3.52ZM51.97-41.54L51.97-41.54L51.97-41.54Q51.97-44.03 54.05-45.38L54.05-45.38L54.05-45.38Q56.13-46.72 59.14-46.72L59.14-46.72L59.14-46.72Q62.14-46.72 63.97-45.38L63.97-45.38L63.97-45.38Q65.79-44.03 65.79-41.54L65.79-41.54L65.79-41.54Q65.79-39.04 63.78-37.76L63.78-37.76L63.78-37.76Q61.76-36.48 58.75-36.48L58.75-36.48L58.75-36.48Q55.74-36.48 53.86-37.76L53.86-37.76L53.86-37.76Q51.97-39.04 51.97-41.54ZM83.39-30.34L83.39-30.34L83.39-30.34Q86.85-33.92 94.14-33.92L94.14-33.92L94.14-33.92Q98.18-33.92 100.38-31.78L100.38-31.78L100.38-31.78Q102.59-29.63 102.59-25.70L102.59-25.70L102.59-25.70Q102.59-21.76 100.38-18.98L100.38-18.98L100.38-18.98Q98.18-16.19 94.08-15.04L94.08-15.04L94.08-15.04Q94.40-13.76 94.85-12.42L94.85-12.42L95.74-9.86L95.74-9.86Q96.96-6.59 97.92-5.44L97.92-5.44L97.92-5.44Q98.88-4.29 100.16-3.90L100.16-3.90L100.16-3.90Q99.46-1.28 96.90 0.13L96.90 0.13L96.90 0.13Q94.85 1.28 92.03 1.28L92.03 1.28L92.03 1.28Q83.78 1.28 82.69-11.46L82.69-11.46L82.69-11.46Q82.50-13.25 82.50-15.04L82.50-15.04L82.50-15.04Q85.70-15.94 87.94-18.94L87.94-18.94L87.94-18.94Q90.18-21.95 90.18-25.47L90.18-25.47L90.18-25.47Q90.18-28.99 87.68-28.99L87.68-28.99L87.68-28.99Q85.89-28.99 84.48-27.01L84.48-27.01L84.48-27.01Q83.07-25.02 82.43-21.63L82.43-21.63L78.21 0L65.28 1.28L74.24-44.80L87.10-46.08L85.63-38.46L85.63-38.46Q84.67-33.09 83.39-30.34ZM119.49 1.28L119.49 1.28L119.49 1.28Q105.41 1.28 105.41-11.97L105.41-11.97L105.41-11.97Q105.41-21.38 110.59-27.46L110.59-27.46L110.59-27.46Q116.10-33.92 125.63-33.92L125.63-33.92L125.63-33.92Q132.54-33.92 136.06-30.72L136.06-30.72L136.06-30.72Q139.58-27.52 139.58-20.80L139.58-20.80L139.58-20.80Q139.58-10.56 134.08-4.61L134.08-4.61L134.08-4.61Q128.70 1.28 119.49 1.28ZM121.15-26.56L121.15-26.56L121.15-26.56Q120.38-24.83 119.78-22.24L119.78-22.24L119.78-22.24Q119.17-19.65 118.40-15.55L118.40-15.55L118.40-15.55Q117.63-11.46 117.63-6.40L117.63-6.40L117.63-6.40Q117.63-4.74 118.18-3.65L118.18-3.65L118.18-3.65Q118.72-2.56 120.19-2.56L120.19-2.56L120.19-2.56Q121.66-2.56 122.59-3.26L122.59-3.26L122.59-3.26Q123.52-3.97 124.22-5.63L124.22-5.63L124.22-5.63Q125.50-8.58 126.53-14.05L126.53-14.05L126.53-14.05Q127.55-19.52 127.65-21.89L127.65-21.89L127.65-21.89Q127.74-24.26 127.74-26.02L127.74-26.02L127.74-26.02Q127.74-27.78 127.23-28.93L127.23-28.93L127.23-28.93Q126.72-30.08 125.28-30.08L125.28-30.08L125.28-30.08Q123.84-30.08 122.88-29.18L122.88-29.18L122.88-29.18Q121.92-28.29 121.15-26.56ZM158.66-3.52L158.66-3.52L158.66-3.52Q156.67 1.28 150.34 1.28L150.34 1.28L150.34 1.28Q147.14 1.28 145.09-0.96L145.09-0.96L145.09-0.96Q143.42-2.82 143.42-4.93L143.42-4.93L143.42-4.93Q143.42-9.73 145.66-20.22L145.66-20.22L150.34-44.80L163.33-46.08L157.12-13.70L157.12-13.70Q156.03-8.96 156.03-7.30L156.03-7.30L156.03-7.30Q156.03-3.65 158.66-3.52ZM179.39-3.52L179.39-3.52L179.39-3.52Q177.41 1.28 171.07 1.28L171.07 1.28L171.07 1.28Q167.87 1.28 165.82-0.96L165.82-0.96L165.82-0.96Q164.16-2.82 164.16-4.93L164.16-4.93L164.16-4.93Q164.16-9.73 166.40-20.22L166.40-20.22L171.07-44.80L184.06-46.08L177.86-13.70L177.86-13.70Q176.77-8.96 176.77-7.30L176.77-7.30L176.77-7.30Q176.77-3.65 179.39-3.52ZM198.78 1.28L198.78 1.28L198.78 1.28Q184.70 1.28 184.70-11.97L184.70-11.97L184.70-11.97Q184.70-21.38 189.89-27.46L189.89-27.46L189.89-27.46Q195.39-33.92 204.93-33.92L204.93-33.92L204.93-33.92Q211.84-33.92 215.36-30.72L215.36-30.72L215.36-30.72Q218.88-27.52 218.88-20.80L218.88-20.80L218.88-20.80Q218.88-10.56 213.38-4.61L213.38-4.61L213.38-4.61Q208.00 1.28 198.78 1.28ZM200.45-26.56L200.45-26.56L200.45-26.56Q199.68-24.83 199.07-22.24L199.07-22.24L199.07-22.24Q198.46-19.65 197.70-15.55L197.70-15.55L197.70-15.55Q196.93-11.46 196.93-6.40L196.93-6.40L196.93-6.40Q196.93-4.74 197.47-3.65L197.47-3.65L197.47-3.65Q198.02-2.56 199.49-2.56L199.49-2.56L199.49-2.56Q200.96-2.56 201.89-3.26L201.89-3.26L201.89-3.26Q202.82-3.97 203.52-5.63L203.52-5.63L203.52-5.63Q204.80-8.58 205.82-14.05L205.82-14.05L205.82-14.05Q206.85-19.52 206.94-21.89L206.94-21.89L206.94-21.89Q207.04-24.26 207.04-26.02L207.04-26.02L207.04-26.02Q207.04-27.78 206.53-28.93L206.53-28.93L206.53-28.93Q206.02-30.08 204.58-30.08L204.58-30.08L204.58-30.08Q203.14-30.08 202.18-29.18L202.18-29.18L202.18-29.18Q201.22-28.29 200.45-26.56Z" fill="#ccc"></path></g></g><style>text {
  font-size: 64px;
  font-family: Arial Black;
  dominant-baseline: central;
  text-anchor: middle;
}</style></svg>